<svg width="256" height="256" viewBox="0 0 256 256" fill="none" xmlns="http://www.w3.org/2000/svg">
<g clip-path="url(#clip0_5_3)">
<path d="M42.6903 74H68.9688L130.759 224.923H132.889L194.679 74H220.957V255.818H200.361V117.679H198.585L141.767 255.818H121.881L65.0625 117.679H63.2869V255.818H42.6903V74Z" fill="#4F0E00"/>
<path d="M67.7159 255.818L18 74H40.3722L78.3693 222.082H80.1449L118.852 74H143.71L182.418 222.082H184.193L222.19 74H244.563L194.847 255.818H172.119L131.991 110.932H130.571L90.4432 255.818H67.7159Z" fill="#4F0E00"/>
<path d="M212.866 74V255.818H191.56L92.483 113.062H90.7074V255.818H68.6903V74H89.9972L189.429 217.111H191.205V74H212.866Z" fill="#4F0E00"/>
<path d="M71 41.6838C71 75.1985 48.6142 102.368 21 102.368C-6.61424 102.368 -29 75.1985 -29 41.6838C-29 8.16905 -6.61424 -19 21 -19C48.6142 -19 71 8.16905 71 41.6838Z" fill="#028417"/>
<path d="M112 56.2479C112 89.7626 89.6142 116.932 62 116.932C34.3858 116.932 12 89.7626 12 56.2479C12 22.7332 34.3858 -4.4359 62 -4.4359C89.6142 -4.4359 112 22.7332 112 56.2479Z" fill="#028417"/>
<path d="M137 41.6838C137 75.1985 114.614 102.368 87 102.368C59.3858 102.368 37 75.1985 37 41.6838C37 8.16905 59.3858 -19 87 -19C114.614 -19 137 8.16905 137 41.6838Z" fill="#028417"/>
<path d="M168 62.3162C168 95.831 145.614 123 118 123C90.3858 123 68 95.831 68 62.3162C68 28.8015 90.3858 1.63248 118 1.63248C145.614 1.63248 168 28.8015 168 62.3162Z" fill="#028417"/>
<path d="M201 41.6838C201 75.1985 178.614 102.368 151 102.368C123.386 102.368 101 75.1985 101 41.6838C101 8.16905 123.386 -19 151 -19C178.614 -19 201 8.16905 201 41.6838Z" fill="#028417"/>
<path d="M222 62.3162C222 95.831 199.614 123 172 123C144.386 123 122 95.831 122 62.3162C122 28.8015 144.386 1.63248 172 1.63248C199.614 1.63248 222 28.8015 222 62.3162Z" fill="#028417"/>
<path d="M251 45.3248C251 78.8395 228.614 106.009 201 106.009C173.386 106.009 151 78.8395 151 45.3248C151 11.8101 173.386 -15.359 201 -15.359C228.614 -15.359 251 11.8101 251 45.3248Z" fill="#028417"/>
<path d="M255 62.3162C255 95.831 232.614 123 205 123C177.386 123 155 95.831 155 62.3162C155 28.8015 177.386 1.63248 205 1.63248C232.614 1.63248 255 28.8015 255 62.3162Z" fill="#028417"/>
<path d="M268 62.3162C268 95.831 245.614 123 218 123C190.386 123 168 95.831 168 62.3162C168 28.8015 190.386 1.63248 218 1.63248C245.614 1.63248 268 28.8015 268 62.3162Z" fill="#028417"/>
<path d="M277 45.3248C277 78.8395 254.614 106.009 227 106.009C199.386 106.009 177 78.8395 177 45.3248C177 11.8101 199.386 -15.359 227 -15.359C254.614 -15.359 277 11.8101 277 45.3248Z" fill="#028417"/>
</g>
<defs>
<clipPath id="clip0_5_3">
<rect width="256" height="256" fill="white"/>
</clipPath>
</defs>
</svg>
